PathFileType	4	(X/Y/Z)	Patient4_TMGait_0pt4_03_right_16.trc.trc
DataRate	CameraRate	NumFrames	NumMarkers	Units	OrigDataRate	OrigDataStartFrame	OrigNumFrames
72.916666666667	72.916666666667	6	33	mm	72.916666666667	1	       141
Frame#	Time	Sacral			L.Shoulder			Chest			R.Shoulder			Neck			R.ASIS			L.ASIS			R.Thigh.Superior			R.Thigh.Lateral			R.Thigh.Inferior			R.Patella			L.Thigh.Superior			L.Thigh.Lateral			L.Thigh.Inferior			L.Patella			L.Shank.Superior			L.Shank.Lateral			L.Shank.Inferior			R.Shank.Superior			R.Shank.Lateral			R.Shank.Inferior			R.Heel			R.Midfoot.Superior			R.Midfoot.Lateral			R.Toe			L.Heel			L.Midfoot.Lateral			L.Midfoot.Superior			L.Toe			L.Elbow			L.Wrist			R.Elbow			R.Wrist			
		X1	Y1	Z1	X2	Y2	Z2	X3	Y3	Z3	X4	Y4	Z4	X5	Y5	Z5	X6	Y6	Z6	X7	Y7	Z7	X8	Y8	Z8	X9	Y9	Z9	X10	Y10	Z10	X11	Y11	Z11	X12	Y12	Z12	X13	Y13	Z13	X14	Y14	Z14	X15	Y15	Z15	X16	Y16	Z16	X17	Y17	Z17	X18	Y18	Z18	X19	Y19	Z19	X20	Y20	Z20	X21	Y21	Z21	X22	Y22	Z22	X23	Y23	Z23	X24	Y24	Z24	X25	Y25	Z25	X26	Y26	Z26	X27	Y27	Z27	X28	Y28	Z28	X29	Y29	Z29	X30	Y30	Z30	X31	Y31	Z31	X32	Y32	Z32	X33	Y33	Z33	

1	20.110000000000	833.859048426234	1015.770478321352	421.034653010264	1039.352543930653	1425.809537922954	214.130247534550	1133.710412928371	1363.318608327216	382.741950310614	1048.547842233332	1450.455379382156	549.590910347112	1019.572361111898	1498.470319354779	366.800873200170	1058.216712391982	953.016288578164	546.656599271897	1051.947083070734	960.167291658798	272.215139380584	1130.824819967161	773.671972088159	532.454226624294	1077.215238662221	656.914534343988	609.528047500525	1170.063616320094	609.532377665910	539.982172805504	1179.970884546996	499.127208888882	567.426549957509	1095.524907580215	750.717806489924	296.125839974783	1002.187201371056	635.977919122386	243.450328823271	1090.457844176475	557.926809436808	301.384150585402	1090.319273376277	488.378001580697	311.074046026076	1059.313005785295	416.892334869815	306.450671765271	961.822143397630	305.604985030245	261.770651913104	1013.168679836651	193.699474234433	332.950228851912	1103.737230404275	426.069604241919	572.672058746326	980.051506890920	388.563325791395	630.349692720993	967.586824054511	277.885928639905	583.945986738958	767.381324711427	212.063722705119	551.335559182769	935.369497330681	157.611386778378	597.306529253743	825.058505480504	154.317158735837	627.178309716152	1003.494979111432	49.243480162968	629.246783798097	881.023761736684	40.289251337698	382.449667792506	953.359219701544	35.546900006660	300.648199917613	1037.982738960068	96.210329882910	325.089082273437	1165.435444597713	41.801583253767	294.701794534101	1045.354905970940	1084.431462488211	73.182398754654	1214.694043149863	882.947385210822	89.475880101961	1008.714287177354	1107.957092276745	685.230764387114	1110.912991236534	866.367200128877	685.356297353792	
2	20.123714285714	832.654600991238	1016.265473607786	420.052341369819	1039.922486843595	1425.582682827952	213.154144154685	1132.948670433062	1363.506978076910	382.608670327799	1046.654730102466	1451.154938300173	548.539290974668	1019.008851388134	1498.641814092733	365.496450400415	1056.382833255259	953.859914511203	546.607055926226	1051.637933534191	960.390348607234	272.045217608003	1130.666992680509	776.420485225679	531.458417702119	1079.669977415448	659.125984757371	609.027221567997	1172.287272585893	612.877776789527	538.686507830644	1184.649891941092	503.323610404614	566.327277717824	1092.945298016306	749.906994572623	297.421066481244	999.000051309365	636.002523201314	243.692431365045	1085.814364716050	557.225275807631	302.544409926288	1084.790038231825	487.904590474150	312.287239263719	1053.961662216653	416.723745134438	307.215868941974	956.680898551255	305.539141789140	261.919109192825	1007.554478183340	193.594352297654	333.378256515084	1110.705517102429	428.447252907442	572.445104148390	989.112646292508	386.776708948030	631.228896438174	980.000516161756	275.764618679865	585.136191218556	782.239202619856	203.630832113049	554.417810495045	951.845539827420	154.018431915501	598.911692872065	842.125006941718	147.956338745641	629.957367677315	1023.334303033119	47.797213855360	630.841119496297	875.133732025309	40.167350953775	382.487837508835	947.472760627833	35.517007993291	300.645722726843	1032.063125975802	96.192614999225	325.162592792423	1159.558232317081	41.923910177964	294.687528314828	1052.849837423849	1084.742753374468	72.598041333654	1224.809696209071	885.590069633987	89.505267563890	998.967052611433	1110.620334697715	685.136462844764	1090.849949745022	865.692796169243	688.012729189535	
3	20.137428571429	831.449005791531	1016.731892826151	419.081272180059	1040.505994617671	1425.323171982357	212.221639650978	1132.199693940247	1363.661659305517	382.515511961307	1044.779498863462	1451.814040457125	547.530880220165	1018.461750127200	1498.780480540195	364.240609225060	1054.548363429333	954.656030747196	546.598445241231	1051.330050479820	960.569710754998	271.923410693373	1130.450226217697	779.066015678402	530.489686272983	1081.997327368082	661.250052844532	608.534480803475	1174.330358269648	616.086461081832	537.387416952724	1189.120457042484	507.445175572053	565.238356487078	1090.369645179686	749.079166296427	298.744898246871	995.837753022706	636.011419702990	243.937739374977	1081.180431831845	556.516135077272	303.713827599130	1079.270001449586	487.426767769012	313.513014586605	1048.629808928688	416.545484073822	307.992138095040	951.576123992133	305.456408990496	262.066904612189	1001.957755989226	193.477716335331	333.814332089188	1117.543965738731	430.721121870510	572.236241601137	998.142107707417	384.786370996796	632.147359744166	992.515293528375	273.451311957185	586.368458673592	797.332791404609	194.798508361412	557.560965434343	968.569095238690	150.265021772840	600.560340870795	859.483320025251	141.299717314311	632.802908408571	1043.536204372433	46.320911849522	632.462625240735	869.268203061937	40.042219322897	382.527177392747	941.608427887231	35.483484851366	300.643268649914	1026.163831000313	96.171892005394	325.244457516885	1153.703639624592	42.045976069569	294.677149409679	1060.180115786127	1085.018575913209	72.084431721692	1234.783769852670	888.239298598844	89.652579134035	989.291279884793	1113.250168526221	685.021845548732	1070.971246049530	865.124088286263	690.637884708428	
4	20.151142857143	830.261054358831	1017.141030516174	418.144308126453	1041.117374818683	1425.009150689230	211.388455063499	1131.486955255695	1363.751345817636	382.506872470389	1042.960264476789	1452.392463955297	546.621003412487	1017.955230802106	1498.859075804504	363.095946748520	1052.727726485238	955.354421121052	546.670691143809	1051.033949933826	960.672443287240	271.892091949215	1130.089537854295	781.465437327965	529.601790517622	1084.005725653305	663.175949412442	608.084782419215	1175.971948397350	618.985377607508	536.125565273324	1193.110797363657	511.375978983039	564.189965784117	1087.829559704944	748.230181759875	300.109269058961	992.739980752625	635.992588369703	244.186896719583	1076.595139393828	555.796978035958	304.886225276081	1073.805829290399	486.942888975407	314.744772945589	1043.367003200298	416.347974768937	308.777628744753	946.560346195075	305.345620767998	262.211837620667	996.415872742530	193.340523669085	334.259054638944	1124.058582245567	432.803235268164	572.068748474317	1007.067295935465	382.447742097320	633.131885260984	1005.166644969405	270.859728986599	587.651740276203	812.893431028470	185.340993112047	560.759588481705	985.717315696630	146.345333056782	602.250839576197	877.382775502272	134.217622136942	635.705203261881	1064.338356121723	44.947422887420	634.073033500211	863.468646135009	39.913267094897	382.567458072187	935.806753272718	35.444305422075	300.640241360027	1020.325014902591	96.145679198403	325.339575449369	1147.912552150448	42.165690949014	294.673922417192	1067.142754700070	1085.219713580841	71.723616681510	1244.412093971483	890.879698842687	90.034070106335	979.830348724389	1115.796717324898	684.876951134507	1051.579704424378	864.749500786577	693.183161146135	
5	20.164857142857	829.105892299456	1017.474493868789	417.256429464286	1041.773071297085	1424.624348186216	210.704699284731	1130.832234596932	1363.750533416907	382.624175640334	1041.229770281098	1452.858578328285	545.859437520774	1017.512167625463	1498.856739038009	362.117451661824	1050.929860537013	955.912122347699	546.858830855503	1050.755669923950	960.678264204303	271.989793516385	1129.499039242493	783.486595200343	528.851826431344	1085.505200758910	664.804165000131	607.718458398504	1177.006242143540	621.418642048398	534.953583671718	1196.368541026804	515.015870579585	563.217500128110	1085.344075786435	747.354842324741	301.520742088048	989.729933930974	635.937568693394	244.438607760184	1072.079370838985	555.065185712923	306.053708562146	1068.424435344498	486.450808946358	315.971938667968	1038.200343113655	416.122634058740	309.567088827557	941.659366535215	305.199191972826	262.351496983341	990.940295330488	193.175219947204	334.711527224097	1130.082496358507	434.629569003977	571.965581697792	1015.851552636513	379.645888863575	634.206125033491	1018.023302581646	267.945608955100	588.985212430323	829.205969629414	175.082842506217	563.993386134084	1003.501932947488	142.300822676118	603.964489404717	896.119644294763	126.632584397190	638.635634257689	1086.005718843279	43.864890784121	635.618172004222	857.750652720363	39.780732845731	382.607588970398	930.082300254782	35.397967650784	300.635993715549	1014.560923885246	96.112074307903	325.450570630238	1142.199722064668	42.280647745550	294.680313938096	1073.576685059988	1085.309936758343	71.588311180543	1253.536478400298	893.502542410072	90.751247328163	970.687852382391	1118.222768088072	684.691063515233	1032.892912522830	864.635187956595	695.615818618910	
6	20.178571428571	827.997105855067	1017.725298362481	416.426002557607	1042.488588488722	1424.161336520452	210.211855766212	1130.254970992092	1363.642533361037	382.901838602386	1039.616046486524	1453.191798248705	545.287565671231	1017.152580800489	1498.761609040690	361.349715424803	1049.162170764070	956.297394592434	547.189286650681	1050.499755121818	960.583436074084	272.245908568429	1128.600252104215	785.016459401294	528.296974854776	1086.321873534553	666.052992875791	607.479256102320	1177.260684692867	623.258397386158	533.934821063987	1198.678405609102	518.282439010352	562.359595965308	1082.923485840526	746.449461344154	302.977227106208	986.818087102457	635.842497759537	244.689964437417	1067.643252273913	554.319396738393	307.205347374543	1063.141546415311	485.948689821660	317.178409074586	1033.141717841707	415.862804546868	310.350915833200	936.878023566731	305.014640872805	262.483449275564	985.524926699625	192.976730091006	335.168394903630	1135.479436499607	436.165149583592	571.946624756907	1024.480082742376	376.316832139141	635.384493280300	1031.152801791197	264.723678457087	590.353440690557	846.548179749699	163.949755130640	567.218639401581	1022.109598789352	138.231074940718	605.660879905580	915.967709348554	118.552388591066	641.539101420177	1108.753530158466	43.305447416210	637.027267405221	852.111722327962	39.646152345381	382.645682730130	924.431566792075	35.343922143305	300.629878224571	1008.867998986387	96.070120288200	325.577067845977	1136.561532810053	42.388093697127	294.697665377004	1079.367242456195	1085.259656002558	71.736124600092	1262.042303638996	896.100406160179	91.879621264281	961.936405354076	1120.502909463764	684.455720730041	1015.059730036046	864.816806683860	697.916672174462	
